<?xml version="1.0" encoding="utf-8"?>
<!-- Generator: Adobe Illustrator 21.0.0, SVG Export Plug-In . SVG Version: 6.00 Build 0)  -->
<svg version="1.1" id="Layer_1" xmlns="http://www.w3.org/2000/svg" xmlns:xlink="http://www.w3.org/1999/xlink" x="0px" y="0px"
	 viewBox="0 0 61 61" style="enable-background:new 0 0 61 61;" xml:space="preserve">
<style type="text/css">
	.st0{fill:#455A64;stroke:#424242;stroke-linecap:round;stroke-linejoin:round;stroke-miterlimit:10;}
	.st1{fill:none;stroke:#546E7A;stroke-linecap:round;stroke-linejoin:round;stroke-miterlimit:10;}
	.st2{fill:#546E7A;stroke:#424242;stroke-linecap:round;stroke-linejoin:round;stroke-miterlimit:10;}
	.st3{fill:none;stroke:#78909C;stroke-linecap:round;stroke-linejoin:round;stroke-miterlimit:10;}
	.st4{fill:none;stroke:#455A64;stroke-linecap:round;stroke-linejoin:round;stroke-miterlimit:10;}
	.st5{fill:#FFA726;stroke:#424242;stroke-linecap:round;stroke-linejoin:round;stroke-miterlimit:10;}
	.st6{fill:none;stroke:#FB8C00;stroke-linecap:round;stroke-linejoin:round;stroke-miterlimit:10;}
	.st7{fill:none;stroke:#FFCC80;stroke-linecap:round;stroke-linejoin:round;stroke-miterlimit:10;}
	.st8{fill:#CFD8DC;stroke:#424242;stroke-linecap:round;stroke-linejoin:round;stroke-miterlimit:10;}
	.st9{fill:none;stroke:#ECEFF1;stroke-linecap:round;stroke-linejoin:round;stroke-miterlimit:10;}
	.st10{fill:none;stroke:#B0BEC5;stroke-linecap:round;stroke-linejoin:round;stroke-miterlimit:10;}
	.st11{fill:none;stroke:#424242;stroke-linecap:round;stroke-linejoin:round;stroke-miterlimit:10;}
	.st12{fill:#EC407A;stroke:#424242;stroke-linecap:round;stroke-linejoin:round;stroke-miterlimit:10;}
	.st13{fill:none;stroke:#F48FB1;stroke-linecap:round;stroke-linejoin:round;stroke-miterlimit:10;}
	.st14{fill:none;stroke:#D81B60;stroke-linecap:round;stroke-linejoin:round;stroke-miterlimit:10;}
	.st15{fill:#ECEFF1;stroke:#424242;stroke-linecap:round;stroke-linejoin:round;stroke-miterlimit:10;}
	.st16{fill:#26C6DA;stroke:#424242;stroke-linecap:round;stroke-linejoin:round;stroke-miterlimit:10;}
	.st17{fill:none;stroke:#00ACC1;stroke-linecap:round;stroke-linejoin:round;stroke-miterlimit:10;}
	.st18{fill:none;stroke:#80DEEA;stroke-linecap:round;stroke-linejoin:round;stroke-miterlimit:10;}
	.st19{fill:#B0BEC5;stroke:#424242;stroke-linecap:round;stroke-linejoin:round;stroke-miterlimit:10;}
	.st20{fill:none;stroke:#CFD8DC;stroke-linecap:round;stroke-linejoin:round;stroke-miterlimit:10;}
	.st21{fill:#E0E0E0;stroke:#424242;stroke-linecap:round;stroke-linejoin:round;stroke-miterlimit:10;}
	.st22{fill:#F57F17;stroke:#424242;stroke-linecap:round;stroke-linejoin:round;stroke-miterlimit:10;}
	.st23{fill:none;stroke:#F57F17;stroke-linecap:round;stroke-linejoin:round;stroke-miterlimit:10;}
	.st24{fill:#FB8C00;stroke:#424242;stroke-miterlimit:10;}
	.st25{fill:none;stroke:#0097A7;stroke-linecap:round;stroke-linejoin:round;stroke-miterlimit:10;}
	.st26{fill:#26C6DA;stroke:#0097A7;stroke-linecap:round;stroke-linejoin:round;stroke-miterlimit:10;}
	.st27{fill:none;stroke:#90A4AE;stroke-linecap:round;stroke-linejoin:round;stroke-miterlimit:10;}
	.st28{fill:#CFD8DC;}
	.st29{fill:none;stroke:#424242;stroke-linecap:round;stroke-linejoin:round;}
	.st30{fill:none;stroke:#424242;stroke-linecap:round;stroke-linejoin:round;stroke-dasharray:4.0714,4.0714;}
	.st31{fill:#90A4AE;stroke:#424242;stroke-linecap:round;stroke-linejoin:round;stroke-miterlimit:10;}
	.st32{fill:none;stroke:#78909C;stroke-linecap:round;stroke-miterlimit:10;}
	.st33{fill:none;stroke:#455A64;stroke-linecap:round;stroke-miterlimit:10;}
	.st34{fill:#78909C;stroke:#424242;stroke-linecap:round;stroke-linejoin:round;stroke-miterlimit:10;}
	.st35{fill:none;stroke:#546E7A;stroke-linecap:round;stroke-miterlimit:10;}
	.st36{fill:none;stroke:#FFA726;stroke-linecap:round;stroke-linejoin:round;stroke-miterlimit:10;}
	.st37{fill:#4DD0E1;stroke:#424242;stroke-linecap:round;stroke-linejoin:round;stroke-miterlimit:10;}
	.st38{fill:#00ACC1;stroke:#424242;stroke-linecap:round;stroke-linejoin:round;stroke-miterlimit:10;}
	.st39{fill:#D81B60;stroke:#424242;stroke-linecap:round;stroke-linejoin:round;stroke-miterlimit:10;}
	.st40{fill:none;stroke:#C2185B;stroke-linecap:round;stroke-linejoin:round;stroke-miterlimit:10;}
	.st41{fill:#FB8C00;stroke:#424242;stroke-linecap:round;stroke-linejoin:round;stroke-miterlimit:10;}
	.st42{fill:none;stroke:#37474F;stroke-linecap:round;stroke-linejoin:round;stroke-miterlimit:10;}
	.st43{fill:#B0BEC5;stroke:#424242;stroke-miterlimit:10;}
	.st44{fill:#37474F;stroke:#424242;stroke-linecap:round;stroke-linejoin:round;stroke-miterlimit:10;}
	.st45{fill:#F5F5F5;stroke:#424242;stroke-linecap:round;stroke-linejoin:round;stroke-miterlimit:10;}
	.st46{fill:none;stroke:#FAFAFA;stroke-linecap:round;stroke-linejoin:round;stroke-miterlimit:10;}
	.st47{fill:#F06292;stroke:#424242;stroke-linecap:round;stroke-linejoin:round;stroke-miterlimit:10;}
	.st48{fill:#F48FB1;stroke:#424242;stroke-linecap:round;stroke-linejoin:round;stroke-miterlimit:10;}
</style>
<g id="Professional_Movie_Camera">
	<path class="st0" d="M26,53.5h-7c-1.1,0-2-0.9-2-2v0c0-1.1,0.9-2,2-2h7c1.1,0,2,0.9,2,2v0C28,52.6,27.1,53.5,26,53.5z"/>
	<path class="st0" d="M52.1,25.6l-13.6,3.9v7l13.6,3.9c0.3,0.1,0.5,0.1,0.8,0.1h6.6c0.6,0,1-0.4,1-1v-13c0-0.6-0.4-1-1-1h-6.6
		C52.6,25.5,52.4,25.5,52.1,25.6z"/>
	<path class="st0" d="M35.5,45.5h-32c-1.7,0-3-1.3-3-3v-19c0-1.7,1.3-3,3-3h32c1.7,0,3,1.3,3,3v19C38.5,44.2,37.2,45.5,35.5,45.5z"
		/>
	<path class="st2" d="M43.5,45.5h-28c-1.7,0-3-1.3-3-3v-19c0-1.7,1.3-3,3-3h28c1.7,0,3,1.3,3,3v19C46.5,44.2,45.2,45.5,43.5,45.5z"
		/>
	<path class="st3" d="M14.5,42.5v-19"/>
	<path class="st1" d="M2.5,42.5v-19"/>
	<path class="st4" d="M44.5,42.5v-19"/>
	<path class="st2" d="M59.2,40.1l-12.7-3.6v-7l12.7-3.6c0.6-0.2,1.3,0.3,1.3,1v12.3C60.5,39.8,59.9,40.3,59.2,40.1z"/>
	<path class="st4" d="M58.5,28.2 M58.5,28.2v9.7"/>
	<g>
		<path class="st0" d="M36.5,0.5h-5c-5.5,0-10,4.5-10,10s4.5,10,10,10h5V0.5z"/>
		<circle class="st5" cx="36.5" cy="10.5" r="10"/>
		<ellipse transform="matrix(0.7071 -0.7071 0.7071 0.7071 3.266 28.8848)" class="st0" cx="36.5" cy="10.5" rx="6.2" ry="6.2"/>
		<path class="st5" d="M38.6,11.1L42,7.6c-0.3-0.6-0.6-1.1-1.1-1.6c-0.5-0.5-1-0.8-1.6-1.1l-3.5,3.5l-4.8-1.1
			c-0.7,1.1-0.9,2.4-0.9,3.7l4.6,1.1l1.1,4.6c1.3,0.1,2.5-0.2,3.7-0.9L38.6,11.1z"/>
	</g>
	<path class="st34" d="M39.5,38h-14c-1.7,0-3-1.3-3-3v-4c0-1.7,1.3-3,3-3h14c1.7,0,3,1.3,3,3v4C42.5,36.7,41.2,38,39.5,38z"/>
	<path class="st22" d="M30.5,49.5h-16c-1.1,0-2-0.9-2-2v0c0-1.1,0.9-2,2-2h16c1.1,0,2,0.9,2,2v0C32.5,48.6,31.6,49.5,30.5,49.5z"/>
	<path class="st5" d="M33.5,49.5h-16c-1.1,0-2-0.9-2-2v0c0-1.1,0.9-2,2-2h16c1.1,0,2,0.9,2,2v0C35.5,48.6,34.6,49.5,33.5,49.5z"/>
	<path class="st2" d="M29,53.5h-7c-1.1,0-2-0.9-2-2v0c0-1.1,0.9-2,2-2h7c1.1,0,2,0.9,2,2v0C31,52.6,30.1,53.5,29,53.5z"/>
	<g>
		<path class="st0" d="M18.5,4.5h-4c-4.4,0-8,3.6-8,8s3.6,8,8,8h4V4.5z"/>
		<circle class="st5" cx="18.5" cy="12.5" r="8"/>
		<ellipse transform="matrix(0.7071 -0.7071 0.7071 0.7071 -3.4203 16.7426)" class="st0" cx="18.5" cy="12.5" rx="5" ry="5"/>
		<path class="st5" d="M19,10.8l-2.8-2.8C15.8,8.3,15.3,8.6,15,9s-0.7,0.8-0.9,1.2l2.8,2.8l-0.9,3.8c0.9,0.5,1.9,0.8,2.9,0.7
			l0.9-3.7l3.7-0.9c0.1-1-0.1-2-0.7-2.9L19,10.8z"/>
	</g>
	<rect x="21.6" y="53.5" class="st8" width="6" height="7"/>
	<circle class="st8" cx="18.5" cy="30" r="2"/>
	<circle class="st8" cx="18.5" cy="36" r="2"/>
</g>
</svg>
